:SAMPLES-PER-SECOND 30
:FULLY-SPECIFIED
:DEGREES
183
root  -3.885800069 37.61000145 9.879333016 10.35400391 -36.05999756 6.992004395
lowerback  13.80650043 7.202489853 -3.622780085
upperback  3.895629883 8.476909637 -8.583109856
thorax  -2.712690115 4.207520008 -8.443699837
lowerneck  12.99499989 1.416149974 -5.916379929
upperneck  5.328040123 0.9506059885 16.95829964
head  -0.7549340129 0.06881880015 6.134960175
lclavicle  0 -9.442270133e-015 7.951389973e-016
lhumerus  2.39744997 -42.73149872 77.56310272
lradius  7.462140962e-032 -3.451377777e-031 102.1999969
lwrist  -7.062250077e-031 -0 35.00059891
lhand  -1.496451383e-031 -27.76390076 20.11240005
lfingers  90 7.125020027 -90
lthumb  89.89689403 5.08795885 91.16245106
rclavicle  0 -9.442270133e-015 7.951389973e-016
rhumerus  45.53319931 -39.33449936 -42.34140015
rradius  1.837077207e-031 3.015624541e-031 58.6507988
rwrist  0 7.062250077e-031 -52.68590164
rhand  -7.920061211e-032 -33.2840004 9.303460121
rfingers  -90 -7.125020027 -90
rthumb  -92.93752616 -24.25625642 -97.11982154
rfemur  -4.265530109 2.763040066 21.97730064
rtibia  -0 0 54.53950119
rfoot  -0 -8.662919998 -18.31019974
rtoes  5.373923086 19.29304026 -105.8922705
lfemur  -58.4756012 -12.18019962 -12.15699959
ltibia  -0 0 42.16820145
lfoot  -0 4.247489929 -16.48769951
ltoes  -4.250644065 -19.5611806 -102.515957
184
root  -4.072199844 37.5042232 9.943533319 10.03399658 -34.29299927 7.956970215
lowerback  13.60589981 7.339439869 -4.09924984
upperback  3.913409948 8.639039993 -8.260410309
thorax  -2.691699982 4.287879944 -7.823379993
lowerneck  13.32989979 0.9576900005 -5.857029915
upperneck  5.512839794 0.3207179904 17.17110062
head  -0.684442997 -0.2480999976 6.226610184
lclavicle  0 -9.442270133e-015 7.951389973e-016
lhumerus  1.889389992 -42.78549957 77.82740021
lradius  7.052007099e-032 -3.459990751e-031 101.5199966
lwrist  0 1.324171889e-031 34.49969864
lhand  -1.496451383e-031 -27.76390076 20.11240005
lfingers  90 7.125020027 -90
lthumb  89.89689403 5.08795885 91.16245106
rclavicle  0 -9.442270133e-015 7.951389973e-016
rhumerus  47.46289825 -38.2478981 -39.91659927
rradius  2.102716513e-031 2.836798778e-031 53.4530983
rwrist  7.062250077e-031 7.062250077e-031 -50.89599991
rhand  -7.920061211e-032 -33.2840004 9.303460121
rfingers  -90 -7.125020027 -90
rthumb  -92.93752616 -24.25625642 -97.11982154
rfemur  -4.136940002 2.711790085 21.94860077
rtibia  -0 0 53.70100021
rfoot  -0 -7.653399944 -18.84860039
rtoes  5.373923086 19.29304026 -105.8922705
lfemur  -58.62110138 -12.63840008 -13.5965004
ltibia  -0 0 42.29249954
lfoot  -0 3.723020077 -16.95879936
ltoes  -4.250644065 -19.5611806 -102.515957
185
root  -4.250577867 37.37133357 10.02502216 9.903991699 -32.54299927 8.440979004
lowerback  13.36299992 7.385369778 -4.237120152
upperback  4.025380135 8.743339539 -7.870240211
thorax  -2.517960072 4.342850208 -7.293930054
lowerneck  13.27180004 0.5565519929 -5.919069767
upperneck  5.661330223 -0.237755999 17.46520042
head  -0.57081002 -0.5165820122 6.357299805
lclavicle  0 -9.442270133e-015 7.951389973e-016
lhumerus  1.489820004 -42.75550079 77.9477005
lradius  6.965027563e-032 -3.46175215e-031 101.3759995
lwrist  -1.412450015e-030 4.413906298e-032 33.90459824
lhand  -1.496451383e-031 -27.76390076 20.11240005
lfingers  90 7.125020027 -90
lthumb  89.89689403 5.08795885 91.16245106
rclavicle  0 -9.442270133e-015 7.951389973e-016
rhumerus  48.69449997 -37.26739883 -37.4137001
rradius  2.321000215e-031 2.661165542e-031 48.90589905
rwrist  7.062250077e-031 7.062250077e-031 -49.02700043
rhand  -7.920061211e-032 -33.2840004 9.303460121
rfingers  -90 -7.125020027 -90
rthumb  -92.93752616 -24.25625642 -97.11982154
rfemur  -3.861809969 2.448719978 22.19219971
rtibia  -0 0 53.15039825
rfoot  -0 -6.523749828 -19.30990028
rtoes  5.373923086 19.29304026 -105.8922705
lfemur  -58.95940018 -13.30780029 -14.32559967
ltibia  -0 0 42.64519882
lfoot  -0 3.740459919 -17.86179924
ltoes  -4.250644065 -19.5611806 -102.515957
186
root  -4.415577791 37.25333326 10.12297803 9.335998535 -30.75100708 8.851013184
lowerback  13.58920002 7.32656002 -4.029699802
upperback  4.349279881 8.713279724 -7.637720108
thorax  -2.305569887 4.334249973 -7.155079842
lowerneck  12.9076004 0.161612004 -5.857500076
upperneck  5.533840179 -0.7310569882 17.8572998
head  -0.4955610037 -0.7493829727 6.489369869
lclavicle  0 -9.442270133e-015 7.951389973e-016
lhumerus  1.192180037 -42.53089905 77.7213974
lradius  7.224027814e-032 -3.456440114e-031 101.8050003
lwrist  -7.062250077e-031 2.206953149e-031 33.76860046
lhand  -1.496451383e-031 -27.76390076 20.11240005
lfingers  90 7.125020027 -90
lthumb  89.89689403 5.08795885 91.16245106
rclavicle  0 -9.442270133e-015 7.951389973e-016
rhumerus  49.58890152 -36.75490189 -35.67860031
rradius  2.494327375e-031 2.499434932e-031 45.05860138
rwrist  7.062250077e-031 3.531125038e-031 -46.71149826
rhand  -7.920061211e-032 -33.2840004 9.303460121
rfingers  -90 -7.125020027 -90
rthumb  -92.93752616 -24.25625642 -97.11982154
rfemur  -2.968110085 1.47044003 22.3586998
rtibia  -0 0 53.12469864
rfoot  -0 -5.739850044 -19.25359917
rtoes  5.373923086 19.29304026 -105.8922705
lfemur  -58.94440079 -14.19390011 -14.99470043
ltibia  -0 0 43.25289917
lfoot  -0 4.233769894 -18.97550011
ltoes  -4.250644065 -19.5611806 -102.515957
